<svg width="1920" height="120" viewBox="0 0 1920 120" fill="none" xmlns="http://www.w3.org/2000/svg">
<g clip-path="url(#clip0_171_18399)">
<path d="M-40.1202 58.6507C-31.0602 63.1007 -21.9156 66.3424 -11.653 60.2944C-2.23911 63.0344 8.81178 49.0615 18.0242 58.0327C28.3751 54.0726 38.026 60.1252 48.5701 53.403C59.3111 47.2149 69.4568 46.1896 79.6666 47.5975C89.7437 50.9043 100.167 45.9084 110.667 43.1731C130.745 47.5262 151.048 45.3029 170.897 42.8744C199.746 55.8207 229.259 49.2106 255.258 49.2939C281.297 52.1556 305.162 42.5484 323.596 46.96C341.797 51.3553 356.108 44.376 363.359 44.5361C389.8 44.9973 406.771 46.8779 420.257 48.3413C433.747 53.1011 443.948 57.978 457.744 51.6566C470.856 58.4717 487.369 56.8508 513.883 46.2144C527.104 51.4758 540.734 50.8677 555.298 40.2631C568.51 48.9934 582.443 44.0695 596.488 40.8881C606.751 34.8401 615.875 41.7233 624.533 48.5739C634.039 46.6365 642.939 50.0345 651.757 57.9373C665.524 58.7265 680.755 62.0467 696.584 63.5005C712.61 65.4886 728.994 69.063 745.954 61.0546C762.443 59.7789 778.477 58.2979 793.261 57.9439C809.69 57.5314 826.207 59.2068 842.908 61.5891C859.61 63.9713 876.974 66.9203 894.633 69.0225C912.114 77.0105 931.216 65.162 949.995 71.3325C973.389 78.5197 995.607 65.6746 1014.83 65.4577C1033.98 69.7456 1052.85 51.1155 1069.2 58.5041C1086.71 49.3199 1102.32 60.6465 1119.35 55.0712C1135.79 57.7824 1153.8 48.1129 1171.73 59.7751C1175.5 59.518 1183.59 64.4208 1193.29 63.0176C1202.85 60.3897 1213.66 56.4622 1220.95 66.1661C1233.25 64.4243 1244.61 72.8517 1256.89 68.1588C1276.82 71.2872 1297.32 69.5981 1317.78 65.1306C1338.52 59.9889 1358.41 63.6351 1379.39 55.2133C1399.97 52.3158 1420.44 47.6757 1440.24 52.703C1448.7 48.9578 1456.26 58.1601 1464.37 56.1248C1472.58 52.5359 1480.44 54.126 1487.93 60.8952C1496.1 57.9968 1503.57 61.6421 1511.23 62.698C1518.89 63.7539 1526.72 65.6893 1534.17 69.6799C1549.61 73.3617 1565.98 63.7507 1581.69 70.2272C1595.2 68.0491 1608.85 63.7994 1621.95 64.0218C1635.2 65.4689 1648.72 59.8218 1662.43 58.0052C1670.5 53.1916 1677.69 57.6838 1685.22 57.1697C1692.18 64.7694 1699.69 61.3042 1707.07 59.5653C1714.73 53.8559 1721.71 57.9866 1728.3 64.1726C1735.87 59.8442 1742.52 68.636 1749.68 70.0046C1757.6 60.6698 1764.03 72.569 1771.41 74.2992C1778.73 76.7198 1786.04 79.4858 1793.71 80.369C1819.5 90.1524 1843.82 80.7504 1865.77 85.0613C1888.4 79.7047 1909.09 78.7225 1929.01 82.0235C1935.96 79.7341 1942.8 78.9984 1949.58 79.2986L1967.44 -15.0353L-12.8963 -33.614L-40.3534 58.6344C-40.5865 58.6181 -40.3533 58.6344 -40.1202 58.6507Z" fill="#F4F0E9"/>
</g>
<defs>
<clipPath id="clip0_171_18399">
<rect width="1920" height="120" fill="white"/>
</clipPath>
</defs>
</svg>
